<svg aria-hidden="true" style="position: absolute; width: 0; height: 0; overflow: hidden;" version="1.1" xmlns="http://www.w3.org/2000/svg" xmlns:xlink="http://www.w3.org/1999/xlink">
<defs>
<symbol id="icon-directions_train" viewBox="0 0 24 24">
<path d="M18 9.984v-4.969h-12v4.969h12zM12 17.016q0.797 0 1.406-0.609t0.609-1.406-0.609-1.406-1.406-0.609-1.406 0.609-0.609 1.406 0.609 1.406 1.406 0.609zM3.984 15.516v-10.5q0-2.391 2.063-3.211t5.953-0.82 5.953 0.82 2.063 3.211v10.5q0 1.453-1.031 2.461t-2.484 1.008l1.5 1.5v0.516h-12v-0.516l1.5-1.5q-1.453 0-2.484-1.008t-1.031-2.461z"></path>
</symbol>
<symbol id="icon-local_bar" viewBox="0 0 24 24">
<path d="M7.453 6.984h9.094l1.781-1.969h-12.656zM21 5.016l-8.016 9v4.969h5.016v2.016h-12v-2.016h5.016v-4.969l-8.016-9v-2.016h18v2.016z"></path>
</symbol>
<symbol id="icon-local_parking" viewBox="0 0 24 24">
<path d="M13.219 11.016q0.797 0 1.383-0.609t0.586-1.406-0.586-1.406-1.383-0.609h-3.234v4.031h3.234zM12.984 3q2.484 0 4.242 1.758t1.758 4.242-1.758 4.242-4.242 1.758h-3v6h-3.984v-18h6.984z"></path>
</symbol>
<symbol id="icon-restaurant" viewBox="0 0 24 24">
<path d="M15.984 6q0-1.406 1.523-2.695t3.492-1.289v19.969h-2.484v-7.969h-2.531v-8.016zM11.016 9v-6.984h1.969v6.984q0 1.594-1.078 2.742t-2.672 1.242v9h-2.484v-9q-1.594-0.094-2.672-1.242t-1.078-2.742v-6.984h2.016v6.984h1.969v-6.984h2.016v6.984h2.016z"></path>
</symbol>
<symbol id="icon-brunch_dining" viewBox="0 0 24 24">
<path d="M6.984 15.984v-1.969h4.031v1.969h4.5q0.469 0 0.469 0.516v0.984q0 0.516-0.469 0.516h-13.031q-0.469 0-0.469-0.516v-0.984q0-0.516 0.469-0.516h4.5zM18 15.891l-0.422-0.422q-0.656-0.703-1.125-1.875t-0.469-2.109v-9.469h6v9.516q0 2.297-1.5 3.938l-0.469 0.516v4.031h1.969v1.969h-3.984v-6.094zM15.516 21.984h-13.031q-0.469 0-0.469-0.469v-1.5h13.969v1.5q0 0.469-0.469 0.469zM18 8.016h2.016v-4.031h-2.016v4.031z"></path>
</symbol>
<symbol id="icon-room_service" viewBox="0 0 24 24">
<path d="M13.828 7.781q2.953 0.609 4.969 2.883t2.203 5.32h-18q0.188-3.047 2.203-5.32t4.969-2.883q-0.188-0.375-0.188-0.797 0-0.844 0.586-1.406t1.43-0.563 1.43 0.563 0.586 1.406q0 0.422-0.188 0.797zM2.016 17.016h19.969v1.969h-19.969v-1.969z"></path>
</symbol>
<symbol id="icon-add_road" viewBox="0 0 24 24">
<path d="M20.016 18v-3h-2.016v3h-3v2.016h3v3h2.016v-3h3v-2.016h-3zM18 3.984h2.016v9h-2.016v-9zM3.984 3.984h2.016v16.031h-2.016v-16.031zM11.016 3.984h1.969v4.031h-1.969v-4.031zM11.016 9.984h1.969v4.031h-1.969v-4.031zM11.016 15.984h1.969v4.031h-1.969v-4.031z"></path>
</symbol>
<symbol id="icon-chat_bubble_outline" viewBox="0 0 24 24">
<path d="M20.016 15.984v-12h-16.031v14.016l2.016-2.016h14.016zM20.016 2.016q0.797 0 1.383 0.586t0.586 1.383v12q0 0.797-0.586 1.406t-1.383 0.609h-14.016l-3.984 3.984v-18q0-0.797 0.586-1.383t1.383-0.586h16.031z"></path>
</symbol>
<symbol id="icon-location_city" viewBox="0 0 24 24">
<path d="M18.984 15v-2.016h-1.969v2.016h1.969zM18.984 18.984v-1.969h-1.969v1.969h1.969zM12.984 6.984v-1.969h-1.969v1.969h1.969zM12.984 11.016v-2.016h-1.969v2.016h1.969zM12.984 15v-2.016h-1.969v2.016h1.969zM12.984 18.984v-1.969h-1.969v1.969h1.969zM6.984 11.016v-2.016h-1.969v2.016h1.969zM6.984 15v-2.016h-1.969v2.016h1.969zM6.984 18.984v-1.969h-1.969v1.969h1.969zM15 11.016h6v9.984h-18v-14.016h6v-1.969l3-3 3 3v6z"></path>
</symbol>
<symbol id="icon-bookmark" viewBox="0 0 24 24">
<path d="M17.016 3q0.797 0 1.383 0.609t0.586 1.406v15.984l-6.984-3-6.984 3v-15.984q0-0.797 0.586-1.406t1.383-0.609h10.031z"></path>
</symbol>
<symbol id="icon-bookmark_outline" viewBox="0 0 24 24">
<path d="M17.016 18v-12.984h-10.031v12.984l5.016-2.203zM17.016 3q0.797 0 1.383 0.609t0.586 1.406v15.984l-6.984-3-6.984 3v-15.984q0-0.797 0.586-1.406t1.383-0.609h10.031z"></path>
</symbol>
<symbol id="icon-credit_card" viewBox="0 0 24 24">
<path d="M20.016 8.016v-2.016h-16.031v2.016h16.031zM20.016 18v-6h-16.031v6h16.031zM20.016 3.984q0.844 0 1.406 0.586t0.563 1.43v12q0 0.844-0.563 1.43t-1.406 0.586h-16.031q-0.844 0-1.406-0.586t-0.563-1.43v-12q0-0.844 0.563-1.43t1.406-0.586h16.031z"></path>
</symbol>
<symbol id="icon-external-link" viewBox="0 0 24 24">
<path d="M17 13v6c0 0.276-0.111 0.525-0.293 0.707s-0.431 0.293-0.707 0.293h-11c-0.276 0-0.525-0.111-0.707-0.293s-0.293-0.431-0.293-0.707v-11c0-0.276 0.111-0.525 0.293-0.707s0.431-0.293 0.707-0.293h6c0.552 0 1-0.448 1-1s-0.448-1-1-1h-6c-0.828 0-1.58 0.337-2.121 0.879s-0.879 1.293-0.879 2.121v11c0 0.828 0.337 1.58 0.879 2.121s1.293 0.879 2.121 0.879h11c0.828 0 1.58-0.337 2.121-0.879s0.879-1.293 0.879-2.121v-6c0-0.552-0.448-1-1-1s-1 0.448-1 1zM10.707 14.707l9.293-9.293v3.586c0 0.552 0.448 1 1 1s1-0.448 1-1v-6c0-0.136-0.027-0.265-0.076-0.383s-0.121-0.228-0.216-0.323c-0.001-0.001-0.001-0.001-0.002-0.002-0.092-0.092-0.202-0.166-0.323-0.216-0.118-0.049-0.247-0.076-0.383-0.076h-6c-0.552 0-1 0.448-1 1s0.448 1 1 1h3.586l-9.293 9.293c-0.391 0.391-0.391 1.024 0 1.414s1.024 0.391 1.414 0z"></path>
</symbol>
<symbol id="icon-map-pin" viewBox="0 0 24 24">
<path d="M22 10c0-2.761-1.12-5.263-2.929-7.071s-4.31-2.929-7.071-2.929-5.263 1.12-7.071 2.929-2.929 4.31-2.929 7.071c0 0.569 0.053 1.128 0.15 1.676 0.274 1.548 0.899 3.004 1.682 4.32 2.732 4.591 7.613 7.836 7.613 7.836 0.331 0.217 0.765 0.229 1.109 0 0 0 4.882-3.245 7.613-7.836 0.783-1.316 1.408-2.772 1.682-4.32 0.098-0.548 0.151-1.107 0.151-1.676zM20 10c0 0.444-0.041 0.887-0.119 1.328-0.221 1.25-0.737 2.478-1.432 3.646-1.912 3.214-5.036 5.747-6.369 6.74-1.398-0.916-4.588-3.477-6.53-6.74-0.695-1.168-1.211-2.396-1.432-3.646-0.077-0.441-0.118-0.884-0.118-1.328 0-2.209 0.894-4.208 2.343-5.657s3.448-2.343 5.657-2.343 4.208 0.894 5.657 2.343 2.343 3.448 2.343 5.657zM16 10c0-1.104-0.449-2.106-1.172-2.828s-1.724-1.172-2.828-1.172-2.106 0.449-2.828 1.172-1.172 1.724-1.172 2.828 0.449 2.106 1.172 2.828 1.724 1.172 2.828 1.172 2.106-0.449 2.828-1.172 1.172-1.724 1.172-2.828zM14 10c0 0.553-0.223 1.051-0.586 1.414s-0.861 0.586-1.414 0.586-1.051-0.223-1.414-0.586-0.586-0.861-0.586-1.414 0.223-1.051 0.586-1.414 0.861-0.586 1.414-0.586 1.051 0.223 1.414 0.586 0.586 0.861 0.586 1.414z"></path>
</symbol>
<symbol id="icon-phone" viewBox="0 0 24 24">
<path d="M23 16.92c0.016-0.714-0.236-1.404-0.673-1.943-0.46-0.566-1.129-0.967-1.925-1.080-0.8-0.098-1.695-0.314-2.586-0.646-0.433-0.159-0.893-0.218-1.344-0.174-0.663 0.064-1.307 0.349-1.819 0.855l-0.72 0.72c-1.77-1.117-3.36-2.667-4.583-4.589l0.726-0.726c0.322-0.33 0.563-0.726 0.707-1.156 0.212-0.632 0.214-1.336-0.039-2.011-0.289-0.753-0.518-1.644-0.644-2.595-0.104-0.714-0.456-1.345-0.963-1.804-0.539-0.486-1.256-0.779-2.027-0.771h-2.996c-0.088 0-0.182 0.004-0.273 0.012-0.824 0.075-1.542 0.478-2.033 1.066s-0.758 1.367-0.683 2.199c0.3 3.076 1.365 6.243 3.216 9.102 1.502 2.413 3.648 4.623 6.298 6.306 2.568 1.697 5.684 2.862 9.086 3.231 0.092 0.009 0.191 0.013 0.288 0.013 0.828-0.003 1.578-0.343 2.118-0.887s0.873-1.297 0.87-2.121zM21 16.92v3c0.001 0.28-0.109 0.53-0.29 0.712s-0.429 0.295-0.706 0.296c-3.149-0.336-5.961-1.391-8.263-2.912-2.428-1.543-4.359-3.537-5.702-5.694-1.697-2.62-2.655-5.481-2.924-8.238-0.024-0.268 0.064-0.526 0.229-0.724s0.403-0.33 0.678-0.355l3.088-0.005c0.271-0.003 0.507 0.094 0.687 0.256 0.17 0.154 0.288 0.366 0.323 0.608 0.142 1.072 0.408 2.117 0.757 3.025 0.081 0.216 0.080 0.447 0.010 0.658-0.049 0.145-0.131 0.281-0.242 0.395l-1.262 1.261c-0.324 0.324-0.379 0.814-0.162 1.201 1.584 2.785 3.839 4.957 6.381 6.378 0.397 0.222 0.882 0.144 1.195-0.166l1.27-1.27c0.166-0.164 0.377-0.257 0.598-0.279 0.152-0.015 0.31 0.005 0.459 0.060 1.022 0.381 2.070 0.636 3.034 0.754 0.241 0.034 0.462 0.166 0.615 0.355 0.147 0.181 0.231 0.412 0.226 0.682z"></path>
</symbol>
<symbol id="icon-tag" viewBox="0 0 24 24">
<path d="M21.297 14.117c0.583-0.586 0.874-1.352 0.874-2.115 0.001-0.764-0.29-1.532-0.874-2.12l-8.59-8.59c-0.181-0.18-0.431-0.292-0.707-0.292h-10c-0.552 0-1 0.448-1 1v10c0 0.256 0.098 0.512 0.293 0.708l8.592 8.582c0.586 0.585 1.356 0.878 2.122 0.877s1.536-0.294 2.12-0.879zM19.883 12.703l-7.17 7.17c-0.196 0.196-0.45 0.294-0.707 0.294s-0.512-0.097-0.707-0.292l-8.299-8.29v-8.585h8.586l8.297 8.297c0.192 0.193 0.289 0.447 0.289 0.704s-0.097 0.509-0.289 0.702zM7 8c0.552 0 1-0.448 1-1s-0.448-1-1-1-1 0.448-1 1 0.448 1 1 1z"></path>
</symbol>
<symbol id="icon-search" viewBox="0 0 24 24">
<path d="M0.793 21.168l1.414 1.414 4.385-4.385-1.377-1.451-4.422 4.422zM14.125 1c-4.9 0-8.875 3.974-8.875 8.875 0 1.919 0.617 3.69 1.652 5.143l1.67 1.76c1.521 1.227 3.447 1.973 5.553 1.973 4.902 0 8.875-3.974 8.875-8.875s-3.973-8.876-8.875-8.876zM14.125 16.75c-3.791 0-6.875-3.084-6.875-6.875s3.084-6.875 6.875-6.875 6.875 3.084 6.875 6.875-3.084 6.875-6.875 6.875z"></path>
</symbol>
<symbol id="icon-chat" viewBox="0 0 24 24">
<path d="M20 1h-17c-1.654 0-3 1.346-3 3v12c0 1.654 2 2 3 2v6l9-6h8c1.654 0 3-1.346 3-3v-11c0-1.654-1.346-3-3-3zM21 15c0 0.551-0.449 1-1 1h-9l-6 5v-5h-2c-0.551 0-1-0.449-1-1v-11c0-0.551 0.449-1 1-1h17c0.551 0 1 0.449 1 1v11z"></path>
</symbol>
<symbol id="icon-location-outline" viewBox="0 0 24 24">
<path d="M12 5c1.609 0 3.12 0.614 4.254 1.73 1.126 1.107 1.746 2.579 1.746 4.14s-0.62 3.030-1.745 4.139l-4.255 4.184-4.254-4.186c-1.125-1.107-1.745-2.576-1.745-4.139s0.62-3.032 1.745-4.141c1.135-1.113 2.647-1.727 4.254-1.727M12 3c-2.047 0-4.096 0.768-5.657 2.305-3.124 3.074-3.124 8.057 0 11.131l5.657 5.563 5.657-5.565c3.124-3.072 3.124-8.056 0-11.129-1.561-1.537-3.609-2.305-5.657-2.305z"></path>
<path d="M12 8.499c0.668 0 1.296 0.26 1.768 0.731 0.976 0.976 0.976 2.562 0 3.537-0.473 0.472-1.1 0.731-1.768 0.731s-1.295-0.26-1.768-0.731c-0.976-0.976-0.976-2.562 0-3.537 0.473-0.471 1.101-0.731 1.768-0.731M12 7.499c-0.896 0-1.792 0.342-2.475 1.024-1.367 1.367-1.367 3.584 0 4.951 0.684 0.684 1.578 1.024 2.475 1.024s1.792-0.342 2.475-1.024c1.366-1.367 1.366-3.584 0-4.951-0.683-0.683-1.579-1.024-2.475-1.024z"></path>
</symbol>
<symbol id="icon-forkandknife" viewBox="0 0 16 16">
<path d="M7 0c-0.552 0-1 0.447-1 1v5h-1v-5c0-0.553-0.448-1-1-1s-1 0.447-1 1v5h-1v-5c0-0.553-0.448-1-1-1s-1 0.447-1 1v6c0 0.553 0.448 1 1 1h2v7c0 0.553 0.448 1 1 1s1-0.447 1-1v-7h2c0.552 0 1-0.447 1-1v-6c0-0.553-0.448-1-1-1zM14 0c0 0-2 0.645-2 3v2c0 1.305 0.837 2.403 2 2.816v7.184c0 0.553 0.448 1 1 1s1-0.447 1-1v-15h-2z"></path>
</symbol>
<symbol id="icon-office" viewBox="0 0 16 16">
<path d="M0 16h8v-16h-8v16zM5 2h2v2h-2v-2zM5 6h2v2h-2v-2zM5 10h2v2h-2v-2zM1 2h2v2h-2v-2zM1 6h2v2h-2v-2zM1 10h2v2h-2v-2zM9 5h7v1h-7zM9 16h2v-4h3v4h2v-9h-7z"></path>
</symbol>
<symbol id="icon-user-tie" viewBox="0 0 16 16">
<path d="M5 3c0-1.657 1.343-3 3-3s3 1.343 3 3c0 1.657-1.343 3-3 3s-3-1.343-3-3zM12.001 7h-0.553l-3.111 6.316 1.163-5.816-1.5-1.5-1.5 1.5 1.163 5.816-3.111-6.316h-0.554c-1.999 0-1.999 1.344-1.999 3v5h12v-5c0-1.656 0-3-1.999-3z"></path>
</symbol>
<symbol id="icon-clock" viewBox="0 0 18 18">
<path d="M9 1c-4.418 0-8 3.582-8 8s3.582 8 8 8 8-3.582 8-8-3.582-8-8-8zM9 15c-3.309 0-6-2.692-6-6s2.691-6 6-6 6 2.692 6 6-2.691 6-6 6z"></path>
<path d="M11.010 9h-1.51c-0.276 0-0.5-0.224-0.5-0.5v-1.51c0-0.547-0.443-0.99-0.99-0.99h-0.020c-0.547 0-0.99 0.443-0.99 0.99v3.020c0 0.547 0.443 0.99 0.99 0.99h3.020c0.547 0 0.99-0.443 0.99-0.99v-0.020c0-0.547-0.443-0.99-0.99-0.99z"></path>
</symbol>
<symbol id="icon-beverage" viewBox="0 0 20 20">
<path d="M9 18v-7l-9-9v-2h20v2l-9 9v7l5 1v1h-12v-1l5-1zM11 8c1.105 0 2-0.895 2-2s-0.895-2-2-2v0c-1.105 0-2 0.895-2 2s0.895 2 2 2v0z"></path>
</symbol>
<symbol id="icon-gift" viewBox="0 0 12 14">
<path d="M7.25 10.594v-5.594h-2.5v5.594c0 0.273 0.227 0.406 0.5 0.406h1.5c0.273 0 0.5-0.133 0.5-0.406zM3.687 4h1.523l-0.984-1.258c-0.086-0.102-0.273-0.242-0.539-0.242-0.414 0-0.75 0.336-0.75 0.75s0.336 0.75 0.75 0.75zM9.062 3.25c0-0.414-0.336-0.75-0.75-0.75-0.266 0-0.453 0.141-0.539 0.242l-0.977 1.258h1.516c0.414 0 0.75-0.336 0.75-0.75zM12 5.25v2.5c0 0.141-0.109 0.25-0.25 0.25h-0.75v3.25c0 0.414-0.336 0.75-0.75 0.75h-8.5c-0.414 0-0.75-0.336-0.75-0.75v-3.25h-0.75c-0.141 0-0.25-0.109-0.25-0.25v-2.5c0-0.141 0.109-0.25 0.25-0.25h3.438c-0.969 0-1.75-0.781-1.75-1.75s0.781-1.75 1.75-1.75c0.523 0 1.008 0.219 1.313 0.602l1 1.289 1-1.289c0.305-0.383 0.789-0.602 1.313-0.602 0.969 0 1.75 0.781 1.75 1.75s-0.781 1.75-1.75 1.75h3.438c0.141 0 0.25 0.109 0.25 0.25z"></path>
</symbol>
<symbol id="icon-line-chart" viewBox="0 0 16 14">
<path d="M16 12v1h-16v-12h1v11h15zM15 2.25v3.398c0 0.219-0.266 0.336-0.43 0.172l-0.945-0.945-4.945 4.945c-0.102 0.102-0.258 0.102-0.359 0l-1.82-1.82-3.25 3.25-1.5-1.5 4.57-4.57c0.102-0.102 0.258-0.102 0.359 0l1.82 1.82 3.625-3.625-0.945-0.945c-0.164-0.164-0.047-0.43 0.172-0.43h3.398c0.141 0 0.25 0.109 0.25 0.25z"></path>
</symbol>
</defs>
</svg>
