<!-- Generated by IcoMoon.io -->
<svg version="1.1" xmlns="http://www.w3.org/2000/svg" width="12" height="14" viewBox="0 0 12 14">
<title>gift</title>
<path d="M7.25 10.594v-5.594h-2.5v5.594c0 0.273 0.227 0.406 0.5 0.406h1.5c0.273 0 0.5-0.133 0.5-0.406zM3.687 4h1.523l-0.984-1.258c-0.086-0.102-0.273-0.242-0.539-0.242-0.414 0-0.75 0.336-0.75 0.75s0.336 0.75 0.75 0.75zM9.062 3.25c0-0.414-0.336-0.75-0.75-0.75-0.266 0-0.453 0.141-0.539 0.242l-0.977 1.258h1.516c0.414 0 0.75-0.336 0.75-0.75zM12 5.25v2.5c0 0.141-0.109 0.25-0.25 0.25h-0.75v3.25c0 0.414-0.336 0.75-0.75 0.75h-8.5c-0.414 0-0.75-0.336-0.75-0.75v-3.25h-0.75c-0.141 0-0.25-0.109-0.25-0.25v-2.5c0-0.141 0.109-0.25 0.25-0.25h3.438c-0.969 0-1.75-0.781-1.75-1.75s0.781-1.75 1.75-1.75c0.523 0 1.008 0.219 1.313 0.602l1 1.289 1-1.289c0.305-0.383 0.789-0.602 1.313-0.602 0.969 0 1.75 0.781 1.75 1.75s-0.781 1.75-1.75 1.75h3.438c0.141 0 0.25 0.109 0.25 0.25z"></path>
</svg>
